HIERARCHY
ROOT Hips
{
	OFFSET 0.00000 0.00000 0.00000
	CHANNELS 6 Xposition Yposition Zposition Zrotation Yrotation Xrotation 
	JOINT LHipJoint
	{
		OFFSET 0 0 0
		CHANNELS 3 Zrotation Yrotation Xrotation
		JOINT LeftHip
		{
			OFFSET 1.84395 -1.68683 0.74144
			CHANNELS 3 Zrotation Yrotation Xrotation
			JOINT LeftKnee
			{
				OFFSET 2.27037 -6.23779 0.00000
				CHANNELS 3 Zrotation Yrotation Xrotation
				JOINT LeftAnkle
				{
					OFFSET 2.56918 -7.05877 0.00000
					CHANNELS 3 Zrotation Yrotation Xrotation
					JOINT LeftToe
					{
						OFFSET 0.22276 -0.61202 1.71784
						CHANNELS 3 Zrotation Yrotation Xrotation
						End Site
						{
							OFFSET 0.00000 -0.00000 0.91613
						}
					}
				}
			}
		}
	}
	JOINT RHipJoint
	{
		OFFSET 0 0 0
		CHANNELS 3 Zrotation Yrotation Xrotation
		JOINT RightHip
		{
			OFFSET -1.76833 -1.68684 0.74144
			CHANNELS 3 Zrotation Yrotation Xrotation
			JOINT RightKnee
			{
				OFFSET -2.49360 -6.85110 0.00000
				CHANNELS 3 Zrotation Yrotation Xrotation
				JOINT RightAnkle
				{
					OFFSET -2.55538 -7.02085 0.00000
					CHANNELS 3 Zrotation Yrotation Xrotation
					JOINT RightToe
					{
						OFFSET -0.21516 -0.59115 1.68050
						CHANNELS 3 Zrotation Yrotation Xrotation
						End Site
						{
							OFFSET -0.00000 -0.00000 0.89604
						}
					}
				}
			}
		}
	}
	JOINT lowerback
	{
		OFFSET 0 0 0
		CHANNELS 3 Zrotation Yrotation Xrotation
		JOINT Chest
		{
			OFFSET 0.06382 1.72312 -0.19613
			CHANNELS 3 Zrotation Yrotation Xrotation
			JOINT Chest2
			{
				OFFSET -0.00055 1.73507 0.23859
				CHANNELS 3 Zrotation Yrotation Xrotation
				JOINT lowerneck
				{
					OFFSET 0 0 0
					CHANNELS 3 Zrotation Yrotation Xrotation
					JOINT Neck
					{
						OFFSET 0.03638 1.65562 0.09633
						CHANNELS 3 Zrotation Yrotation Xrotation
						JOINT Head
						{
							OFFSET 0.06388 1.62807 -0.32386
							CHANNELS 3 Zrotation Yrotation Xrotation
							End Site
							{
								OFFSET 0.00995 1.67644 -0.12021
							}
						}
					}
				}
				JOINT LeftCollar
				{
					OFFSET 0 0 0
					CHANNELS 3 Zrotation Yrotation Xrotation
					JOINT LeftShoulder
					{
						OFFSET 3.09648 1.42991 0.28122
CHANNELS 3 Zrotation Xrotation Yrotation
						JOINT LeftElbow
						{
OFFSET 0 -5.118780 -0.000000
CHANNELS 3 Zrotation Xrotation Yrotation
							JOINT LeftWrist
							{
OFFSET 0 -3.599710 0.000000
CHANNELS 3 Zrotation Xrotation Yrotation
								JOINT lhand
								{
									OFFSET 0 0 0
CHANNELS 3 Zrotation Xrotation Yrotation
									JOINT LFingers
									{
OFFSET 0 -0.628770 0.000000
CHANNELS 3 Zrotation Xrotation Yrotation
										End Site
										{
OFFSET 0 -0.506930 0.000000
										}
									}
								}
								JOINT LThumb
								{
OFFSET 0 0.000000 0.000000
CHANNELS 3 Zrotation Xrotation Yrotation
									End Site
									{
OFFSET 0 -0.514670 0.514670
									}
								}
							}
						}
					}
				}
				JOINT RightCollar
				{
					OFFSET 0 0 0
					CHANNELS 3 Zrotation Yrotation Xrotation
					JOINT RightShoulder
					{
						OFFSET -3.33565 1.14597 0.05047
CHANNELS 3 Zrotation Xrotation Yrotation
						JOINT RightElbow
						{
OFFSET 0 -5.490200 0.000000
CHANNELS 3 Zrotation Xrotation Yrotation
							JOINT RightWrist
							{
OFFSET 0 -3.206590 -0.000000
CHANNELS 3 Zrotation Xrotation Yrotation
								JOINT rhand
								{
									OFFSET 0 0 0
CHANNELS 3 Zrotation Xrotation Yrotation
									JOINT RFingers
									{
OFFSET 0 -0.691880 0.000000
CHANNELS 3 Zrotation Xrotation Yrotation
										End Site
										{
OFFSET 0 -0.557810 0.000000
										}
									}
								}
								JOINT RThumb
								{
OFFSET 0 0.000000 0.000000
CHANNELS 3 Zrotation Xrotation Yrotation
									End Site
									{
OFFSET 0 -0.566330 0.566330
									}
								}
							}
						}
					}
				}
			}
		}
	}
}
MOTION
Frames: 11
Frame Time: 0.008333333333333333
0.837308 17.454685 9.506358 -9.172332 -0.022267 9.110607 0.000000 0.000000 0.000000 -17.955979 -38.499559 23.741115 0.054147 -1.501650 -4.130229 -4.986647 40.529782 -38.192052 0.111381 2.150972 5.923071 0.000000 0.000000 0.000000 27.940879 23.983826 7.673845 -0.010097 -0.647712 1.779900 1.090682 -22.943460 -23.759059 -0.044747 -1.364407 3.752138 9.181723 4.988827 -0.097391 -0.443152 7.067076 -7.509127 -5.901707 2.942334 -6.739799 7.083017 4.160391 -6.293550 2.416158 4.510518 47.894412 0.779376 3.566980 19.966748 0.000000 0.000000 0.000000 3.854512 13.978131 -39.419459 121.940764 -55.770184 87.268708 15.070601 -75.018538 -7.953618 0.000000 0.000000 0.000000 -7.125000 0.000000 0.000000 -10.077637 38.033748 -1.749809 0.000000 0.000000 0.000000 -0.696637 -17.041180 82.866566 -97.576571 -59.781904 -66.556706 -11.967482 36.376278 32.906308 0.000000 0.000000 0.000000 7.125000 0.000000 0.000000 24.315677 61.814254 -10.284506
0.837703 17.462549 9.526801 -8.702518 -0.459737 9.359645 0.000000 0.000000 0.000000 -18.866227 -39.007975 24.129048 0.053832 -1.496955 -4.117285 -5.010709 41.008036 -39.367659 0.144822 2.452078 6.756737 0.000000 0.000000 0.000000 27.282693 24.396451 7.548899 -0.010100 -0.647845 1.780349 1.105654 -22.975552 -23.672497 -0.034612 -1.200074 3.299465 8.416786 5.064423 -0.166400 -0.602169 7.124489 -7.573206 -5.649639 3.006988 -6.813593 7.157597 4.115479 -6.321806 2.049447 4.567139 47.629192 0.578177 3.549444 19.802412 0.000000 0.000000 0.000000 3.798179 13.996229 -39.524375 122.047278 -55.739240 87.356679 15.100262 -75.002642 -6.558826 0.000000 0.000000 0.000000 -7.125000 0.000000 0.000000 -9.822459 36.615714 -2.049705 0.000000 0.000000 0.000000 -0.074976 -17.486302 84.009693 -98.614775 -59.717692 -67.453483 -14.521386 37.243893 32.281957 0.000000 0.000000 0.000000 7.125000 0.000000 0.000000 21.016358 61.883021 -8.847211
0.845052 17.470568 9.547236 -8.745343 -0.887868 9.373640 0.000000 0.000000 0.000000 -19.171797 -38.968746 24.498760 0.053942 -1.498357 -4.121046 -4.860266 41.088570 -40.321891 0.195357 2.846487 7.851646 0.000000 0.000000 0.000000 27.264449 24.375433 7.572764 -0.009611 -0.633321 1.740399 1.100269 -22.753569 -23.257584 -0.023452 -0.989464 2.719899 8.404339 5.141502 0.074964 -0.664690 7.245952 -7.541692 -5.734726 3.061730 -6.893041 7.499614 4.217498 -6.563745 1.376197 4.916855 47.403279 0.241249 3.655789 19.773064 0.000000 0.000000 0.000000 3.476176 13.963718 -39.258971 122.291184 -55.667782 87.558257 15.387502 -75.008212 -6.505485 0.000000 0.000000 0.000000 -7.125000 0.000000 0.000000 -9.574967 36.577870 -2.005790 0.000000 0.000000 0.000000 -0.396129 -19.530901 87.595976 -99.044078 -59.688688 -67.824234 -17.855637 38.088133 33.649362 0.000000 0.000000 0.000000 7.125000 0.000000 0.000000 18.556312 64.021158 -8.700498
0.848000 17.471918 9.561139 -8.834314 -1.193765 9.501806 0.000000 0.000000 0.000000 -19.209742 -39.042477 24.673080 0.056187 -1.529886 -4.208103 -4.750339 41.198055 -41.116430 0.231406 3.096001 8.546059 0.000000 0.000000 0.000000 27.321897 24.590862 7.538664 -0.009704 -0.634942 1.744888 1.072651 -22.625728 -23.278119 -0.038347 -1.264395 3.476461 8.566263 5.317657 0.325671 -0.924247 7.507747 -7.678197 -6.138586 3.157268 -7.096004 7.834673 4.128542 -6.653671 1.164479 4.763874 47.104899 0.040775 3.621613 19.610828 0.000000 0.000000 0.000000 3.960243 14.226768 -39.890670 123.330869 -55.354925 88.415160 15.492311 -75.709602 -7.996432 0.000000 0.000000 0.000000 -7.125000 0.000000 0.000000 -9.729333 38.106085 -1.670202 0.000000 0.000000 0.000000 1.784556 -18.775205 87.686126 -97.410899 -59.791185 -66.413466 -11.912377 36.591805 34.018719 0.000000 0.000000 0.000000 7.125000 0.000000 0.000000 25.443903 62.792152 -11.381458
0.852389 17.470477 9.574554 -8.921727 -1.415338 9.782636 0.000000 0.000000 0.000000 -18.980447 -39.037966 24.396032 0.054877 -1.511580 -4.157629 -4.577031 41.076363 -41.609435 0.270365 3.344472 9.239341 0.000000 0.000000 0.000000 27.265176 24.657157 7.270264 -0.009323 -0.623619 1.713814 1.050962 -22.427214 -23.088801 -0.034411 -1.197312 3.291793 8.368689 5.378599 0.246933 -0.837867 7.576866 -7.661487 -5.931257 3.210285 -7.053010 7.312682 4.166340 -6.872710 1.357260 4.821531 46.500674 0.220509 3.563007 19.214101 0.000000 0.000000 0.000000 3.659716 14.408553 -39.267604 123.601228 -55.271358 88.637513 14.982536 -76.646654 -8.428396 0.000000 0.000000 0.000000 -7.125000 0.000000 0.000000 -10.236024 38.510220 -1.657154 0.000000 0.000000 0.000000 2.252601 -19.397052 87.565029 -97.418342 -59.790969 -66.419952 -10.225538 33.918879 34.411274 0.000000 0.000000 0.000000 7.125000 0.000000 0.000000 27.642764 62.704999 -12.382251
0.858894 17.469318 9.592339 -8.926527 -1.538186 9.952425 0.000000 0.000000 0.000000 -19.256761 -39.404859 24.716418 0.055949 -1.526741 -4.199426 -4.588727 41.388055 -42.300532 0.288590 3.454541 9.546964 0.000000 0.000000 0.000000 27.217276 24.862767 7.236504 -0.008884 -0.610183 1.676891 1.064078 -22.487896 -23.077401 -0.029852 -1.114918 3.064930 8.045632 5.409682 0.101264 -0.715425 7.595877 -7.634109 -5.608808 3.249120 -6.986284 7.525664 4.191914 -7.045957 0.616054 5.098733 46.028738 -0.141483 3.606877 18.998400 0.000000 0.000000 0.000000 3.509684 14.924201 -39.080804 124.164189 -55.094110 89.099675 14.178250 -75.365940 -7.540644 0.000000 0.000000 0.000000 -7.125000 0.000000 0.000000 -10.756296 37.555501 -1.999009 0.000000 0.000000 0.000000 2.908305 -19.426244 85.859660 -98.057741 -59.753258 -66.972408 -10.500297 32.756237 33.768895 0.000000 0.000000 0.000000 7.125000 0.000000 0.000000 26.685149 62.213759 -11.609656
0.864088 17.468741 9.605338 -8.868280 -1.436905 10.039446 0.000000 0.000000 0.000000 -19.298739 -39.492054 24.652836 0.055751 -1.523442 -4.190242 -4.539674 41.308613 -42.326569 0.305665 3.554340 9.826171 0.000000 0.000000 0.000000 27.096452 24.823902 7.160338 -0.008885 -0.609456 1.674809 1.072765 -22.532091 -23.078290 -0.026128 -1.042295 2.865282 7.918142 5.390817 0.180103 -0.764827 7.573314 -7.688084 -5.604197 3.236553 -7.101339 7.578217 4.119562 -7.448903 0.153568 5.126676 45.839105 -0.363041 3.559421 19.004635 0.000000 0.000000 0.000000 3.424500 15.214395 -38.792977 124.739564 -54.908625 89.571045 13.505377 -75.761572 -7.285985 0.000000 0.000000 0.000000 -7.125000 0.000000 0.000000 -11.274311 37.255564 -2.182330 0.000000 0.000000 0.000000 2.913143 -19.438398 84.424057 -97.770958 -59.770575 -66.724688 -14.352268 37.075743 35.962565 0.000000 0.000000 0.000000 7.125000 0.000000 0.000000 24.878314 65.169355 -12.485027
0.871231 17.467800 9.619583 -9.054516 -1.277336 10.109992 0.000000 0.000000 0.000000 -19.093510 -39.597155 24.690231 0.057663 -1.549447 -4.262087 -4.586854 41.376836 -42.281888 0.291226 3.470389 9.591246 0.000000 0.000000 0.000000 27.303024 24.807838 7.168140 -0.008500 -0.594521 1.633736 1.110538 -22.700716 -23.033910 -0.019668 -0.905689 2.489245 8.209390 5.382778 0.116392 -0.829609 7.566883 -7.716136 -5.824774 3.214803 -7.056796 7.639914 4.167875 -7.616201 0.151238 5.147394 45.316818 -0.379052 3.566769 18.711056 0.000000 0.000000 0.000000 3.417469 15.216167 -38.696392 125.708599 -54.586132 90.362366 13.722483 -75.613769 -6.186302 0.000000 0.000000 0.000000 -7.125000 0.000000 0.000000 -10.906437 36.159277 -2.404181 0.000000 0.000000 0.000000 2.934669 -19.598297 83.133540 -95.318637 -59.891535 -64.604282 -8.910974 34.904026 38.224128 0.000000 0.000000 0.000000 7.125000 0.000000 0.000000 33.567753 65.544901 -17.546698
0.876058 17.467244 9.634276 -9.075296 -1.338991 10.099005 0.000000 0.000000 0.000000 -19.209776 -39.593797 24.880439 0.059302 -1.571157 -4.321920 -4.621591 41.485248 -42.387939 0.288031 3.451597 9.538627 0.000000 0.000000 0.000000 27.344018 24.872881 7.259196 -0.008844 -0.607171 1.668416 1.082324 -22.635571 -23.195746 -0.024883 -1.017900 2.798208 8.377854 5.458626 0.123851 -0.967953 7.673652 -7.807627 -6.071146 3.247170 -7.108329 7.672548 4.254439 -7.823907 0.359078 5.157167 45.033110 -0.283385 3.597359 18.578945 0.000000 0.000000 0.000000 3.475503 15.227536 -38.288924 125.273540 -54.732313 90.007382 13.804234 -75.358523 -4.989057 0.000000 0.000000 0.000000 -7.125000 0.000000 0.000000 -10.649654 34.954842 -2.666072 0.000000 0.000000 0.000000 2.934396 -19.780437 82.362187 -92.991879 -59.966093 -62.590802 -3.433068 28.710926 37.406102 0.000000 0.000000 0.000000 7.125000 0.000000 0.000000 38.046292 63.392991 -18.291865
0.876140 17.464280 9.653458 -9.065552 -1.544105 10.211614 0.000000 0.000000 0.000000 -19.335272 -39.599035 25.017717 0.060980 -1.593879 -4.384598 -4.587510 41.584344 -42.767221 0.300977 3.527225 9.750219 0.000000 0.000000 0.000000 27.320727 24.968495 7.229325 -0.009380 -0.624979 1.717458 1.081202 -22.580196 -23.090731 -0.016380 -0.826431 2.271415 8.222733 5.527138 -0.107967 -0.949682 7.741519 -7.897587 -5.948120 3.291318 -7.081250 7.975243 4.360769 -7.914370 -0.004435 5.378858 44.638208 -0.476807 3.683493 18.397543 0.000000 0.000000 0.000000 3.465754 15.245447 -37.687914 124.747665 -54.906011 89.577591 11.673555 -75.807048 -4.252831 0.000000 0.000000 0.000000 -7.125000 0.000000 0.000000 -12.266366 34.120337 -3.339265 0.000000 0.000000 0.000000 2.783072 -19.127863 82.123356 -94.563793 -59.920908 -63.951243 -4.282097 28.494483 35.900230 0.000000 0.000000 0.000000 7.125000 0.000000 0.000000 35.367665 62.423094 -16.032641
0.877746 17.461529 9.676984 -8.929575 -1.541505 10.224436 0.000000 0.000000 0.000000 -19.579907 -39.586479 25.071781 0.058792 -1.564796 -4.304316 -4.548824 41.531116 -42.807664 0.294171 3.487357 9.638813 0.000000 0.000000 0.000000 27.175517 24.945526 7.335033 -0.008492 -0.593616 1.631124 1.081691 -22.639005 -23.210300 -0.017888 -0.864116 2.374951 7.957849 5.443642 -0.153276 -0.910836 7.623079 -8.020951 -5.765726 3.238571 -7.242431 7.987072 4.467522 -8.075977 -0.234841 5.608456 44.254538 -0.550949 3.739166 18.223128 0.000000 0.000000 0.000000 3.474726 15.216709 -37.615500 125.377311 -54.697930 90.092141 12.059613 -75.116470 -3.715592 0.000000 0.000000 0.000000 -7.125000 0.000000 0.000000 -11.871949 33.599628 -3.381134 0.000000 0.000000 0.000000 2.093253 -17.728602 83.201520 -97.380697 -59.793089 -66.387423 -11.192865 31.547130 35.995756 0.000000 0.000000 0.000000 7.125000 0.000000 0.000000 28.346884 64.329368 -13.795344
